<svg xmlns="http://www.w3.org/2000/svg" viewBox="0 0 128 128">
    <rect fill="#486273" width="128" height="128"/>
    <path fill="#5a7183" d="M0,121.68,6.35,128H80.82L128,80.94v-.76H66.82c0-.41,0-.9,0-1.13A130.9,130.9,0,0,1,93.25,0H34.12a181.43,181.43,0,0,0-18,79c0,.22,0,.72,0,1.13H0Z"/>
    <path fill="#b7babc" d="M23.07,87.93H16.67V115.6H36.95v-5.22H23.07Zm27.4,0L38.14,115.6H44.7l2.45-5.93H60l2.45,5.93h6.72L56.8,87.93Zm-1.27,16.88,4.39-10.6L58,104.81ZM68.54,87.93v5.22H77.4V115.6H83.8V93.15h8.86V87.93Z"/>
    <path fill="#0d1e2a" d="M89.93,55.52v3.69H69v3.38H89.93V75.91H69v3.38H92.9V58.7h5.43V55.52Zm3-6L74.5,35.37H92.9V32H69v3.14L87.44,49.3H69v3.38H92.9Zm0-26.67H85.66V17a11.07,11.07,0,0,0-2.22-7.31,8.35,8.35,0,0,0-12.23,0A11.08,11.08,0,0,0,69,17v9.32H92.9Zm-10.21,0H72V17.07a7.71,7.71,0,0,1,1.38-5,5.49,5.49,0,0,1,8,0,7.71,7.71,0,0,1,1.38,5Z"/>
</svg>
