<svg xmlns="http://www.w3.org/2000/svg" viewBox="0 0 200 200">
  <rect fill="#177E89" width="200" height="200"/>
  <path fill="#084C61" d="M196.67,0L0,196.67V200h4.75L200,4.76V0H196.67z"/>
  <path fill="#DB3A34" d="M15,15.03h13.01v53.61h18.63V15.03H59.6v53.61h19.25V15.03h12.96L91.9,79.5L15,79.45 L15,15.03L15,15.03z"/>
  <path fill="#FFC857" d="M79.22,164.05l12.66-1.23c0.76,4.25,2.3,7.37,4.61,9.36c2.34,1.99,5.49,2.99,9.45,2.99 c4.19,0,7.34-0.88,9.45-2.64c2.14-1.79,3.21-3.87,3.21-6.24c0-1.52-0.45-2.81-1.36-3.87c-0.88-1.08-2.43-2.02-4.66-2.81 c-1.52-0.53-5-1.46-10.42-2.81c-6.97-1.73-11.87-3.85-14.68-6.37c-3.96-3.54-5.93-7.87-5.93-12.96c0-3.28,0.92-6.34,2.77-9.18 c1.88-2.87,4.56-5.05,8.04-6.55c3.52-1.49,7.75-2.24,12.7-2.24c8.09,0,14.17,1.77,18.24,5.32c4.1,3.54,6.25,8.28,6.46,14.19 l-13.01,0.57c-0.56-3.31-1.76-5.68-3.6-7.12c-1.82-1.46-4.56-2.2-8.22-2.2c-3.78,0-6.74,0.78-8.88,2.33c-1.38,1-2.07,2.33-2.07,4 c0,1.52,0.64,2.83,1.93,3.91c1.64,1.38,5.63,2.81,11.95,4.31s11,3.05,14.02,4.66c3.05,1.58,5.42,3.76,7.12,6.55 c1.73,2.75,2.59,6.17,2.59,10.24c0,3.69-1.03,7.15-3.08,10.37c-2.05,3.22-4.95,5.63-8.7,7.21c-3.75,1.55-8.42,2.33-14.02,2.33 c-8.14,0-14.4-1.88-18.76-5.63C82.67,176.75,80.07,171.26,79.22,164.05L79.22,164.05z"/>
  <path fill="#FFC857" d="M154.85,120.59v23.69c3.98-4.66,8.75-6.99,14.28-6.99c2.84,0,5.41,0.53,7.69,1.58 s4,2.4,5.14,4.04c1.17,1.64,1.96,3.46,2.37,5.45c0.44,1.99,0.66,5.08,0.66,9.27v27.38h-12.35v-24.65c0-4.89-0.23-8-0.7-9.32 c-0.47-1.32-1.3-2.36-2.5-3.12c-1.17-0.79-2.65-1.19-4.44-1.19c-2.05,0-3.88,0.5-5.49,1.49c-1.61,1-2.8,2.5-3.56,4.53 c-0.73,1.99-1.1,4.95-1.1,8.88v23.38H142.5v-64.42H154.85z"/>
</svg>
